<svg id="Layer_1" data-name="Layer 1" xmlns="http://www.w3.org/2000/svg" viewBox="0 0 200 200"><rect width="200" height="200" rx="13.24048" style="fill:#010101"/><path d="M175.738,21.15272v-.41287H151.51359V66.30247c-1.96651,5.01516-5.44458,11.059-11.43944,14.64154L85.23694,115.33748S67.079,123.60515,66.35265,140.47117v29.10208s-1.81574,11.57471-7.26316,13.22819H99.76183A36.31006,36.31006,0,0,0,119.869,176.8751c8.61-5.74118,18.54731-16.40195,18.75241-35.08113,0,0,4.72107-23.81089-14.88947-36.04695,0,0-6.53691-6.94487,3.99472-13.559l23.78691-13.83184V183.2601H175.738v-.5204a17.2899,17.2899,0,0,1-6.50107-13.32718V34.4799A17.2899,17.2899,0,0,1,175.738,21.15272ZM84.14757,178.50227h0V128.56568s5.08419-16.866,18.52105-19.51162c0,0,21.06335,11.57472,18.52115,34.72415a36.855,36.855,0,0,1-.263,4.58893C119.017,165.504,103.06281,178.50227,84.14757,178.50227Z" style="fill:#fff"/><path d="M133.9004,53.82622c.16143-11.61147-6.06159-19.43409-13.02589-24.54211a46.3902,46.3902,0,0,0-27.38516-8.52847H59.81588c6.9,1.3228,6.53681,9.92115,6.53681,9.92115V108.062c-3.73533,8.89628-13.81126,11.98663-17.86639,12.8931V20.7399H24.262v.41276A17.29011,17.29011,0,0,1,30.7631,34.47994V169.41256A17.28992,17.28992,0,0,1,24.262,182.73975v.5204H48.4863V138.54956c4.673-15.4735,16.41378-21.22778,16.41378-21.22778l45.03184-28.44073C135.353,76.97565,133.9004,53.82622,133.9004,53.82622ZM100.12654,90.86529C81.60539,103.76281,83.42123,84.2512,83.42123,84.2512l1.08949-59.19639h0c15.178,0,28.44846,9.80293,31.0001,23.42783a39.59268,39.59268,0,0,1,.59477,8.9813S118.6477,77.96778,100.12654,90.86529Z" style="fill:#fff"/></svg>