<svg id="Layer_1" data-name="Layer 1" xmlns="http://www.w3.org/2000/svg" viewBox="0 0 1080 1080"><rect width="1080" height="1080"/><path d="M719.34,283.56v-1.08h-57.9V402.05c-4.7,13.16-13,29-27.33,38.43L503.05,530.74s-43.39,21.7-45.13,66v76.37s-4.34,30.38-17.35,34.72h97.2a81.32,81.32,0,0,0,48.05-15.55c20.58-15.07,44.32-43,44.81-92.07,0,0,11.29-62.49-35.58-94.6,0,0-15.62-18.23,9.55-35.58l56.84-36.3V709h57.9v-1.36a47.12,47.12,0,0,1-15.54-35V318.54A47.12,47.12,0,0,1,719.34,283.56Zm-218.89,413h0V565.45s12.15-44.26,44.26-51.2c0,0,50.34,30.37,44.27,91.13a107.78,107.78,0,0,1-.63,12C583.78,662.39,545.65,696.51,500.45,696.51Z" style="fill:#fff"/><path d="M619.35,369.31c.39-30.47-14.48-51-31.13-64.41-18.45-14.86-41.75-22.38-65.44-22.38H442.3c16.49,3.47,15.62,26,15.62,26V511.65c-8.92,23.34-33,31.45-42.69,33.83v-263h-57.9v1.08a47.12,47.12,0,0,1,15.54,35V672.65a47.12,47.12,0,0,1-15.54,35V709h57.9V591.66C426.39,551.05,454.45,536,454.45,536l107.62-74.64C622.82,430.06,619.35,369.31,619.35,369.31Zm-80.71,97.2c-44.26,33.85-39.93-17.35-39.93-17.35l2.61-155.36h0c36.27,0,68,25.73,74.08,61.49a113.88,113.88,0,0,1,1.43,23.57S582.9,432.67,538.64,466.51Z" style="fill:#fff"/><path d="M393.56,785.69H368.82l-4.09,11.83H351.65L374,735.33h14.5l22.33,62.19H397.65Zm-3.38-10-9-26-9,26Z" style="fill:#fff"/><path d="M462.11,764a17.26,17.26,0,0,1-7.39,7q-5,2.68-12.67,2.68H431.63v23.84H419.18v-62.1h22.87a27.66,27.66,0,0,1,12.28,2.49,17.31,17.31,0,0,1,7.6,6.85,20.13,20.13,0,0,1,.18,19.21Zm-12.95-2.7a8.72,8.72,0,0,0,2.49-6.64q0-9.06-10.14-9.07h-9.88v18.06h9.88Q446.67,763.62,449.16,761.27Z" style="fill:#fff"/><path d="M516.2,764a17.29,17.29,0,0,1-7.38,7q-5,2.68-12.68,2.68H485.73v23.84H473.27v-62.1h22.87a27.66,27.66,0,0,1,12.28,2.49,17.26,17.26,0,0,1,7.6,6.85A20.06,20.06,0,0,1,516.2,764Zm-12.94-2.7a8.72,8.72,0,0,0,2.49-6.64q0-9.06-10.15-9.07h-9.87v18.06h9.87Q500.76,763.62,503.26,761.27Z" style="fill:#fff"/><path d="M565.45,785.69H540.71l-4.09,11.83H523.54l22.34-62.19h14.5l22.33,62.19H569.54Zm-3.38-10-9-26-9,26Z" style="fill:#fff"/><path d="M623.11,797.52l-13.71-24.2h-5.87v24.2H591.08v-62.1h23.31A27.28,27.28,0,0,1,626.67,738a17.88,17.88,0,0,1,7.61,6.85,18.82,18.82,0,0,1,2.53,9.66,18.49,18.49,0,0,1-3.56,11.07c-2.37,3.3-5.9,5.56-10.59,6.81l14.86,25.18ZM603.53,764h10.41c3.39,0,5.9-.81,7.56-2.44a9.07,9.07,0,0,0,2.49-6.81,8.64,8.64,0,0,0-2.49-6.62c-1.66-1.58-4.17-2.36-7.56-2.36H603.53Z" style="fill:#fff"/><path d="M660.56,745.47V761h20.91v9.88H660.56v16.46h23.58v10.14h-36V735.33h36v10.14Z" style="fill:#fff"/><path d="M707.89,787.64h20.46v9.88H695.44v-62.1h12.45Z" style="fill:#fff"/></svg>