<svg id="Layer_1" data-name="Layer 1" xmlns="http://www.w3.org/2000/svg" viewBox="0 0 200 200"><rect width="200" height="200" rx="33.24805" style="fill:#010101"/><path d="M155.42844,44.9654v-.28615H137.7V76.25833c-1.43918,3.476-3.98459,7.66492-8.37189,10.14793L89.19573,110.2441s-13.28878,5.73026-13.82036,17.42v20.17042s-1.32884,8.02235-5.31552,9.16836H99.8257a27.65867,27.65867,0,0,0,14.71534-4.1075c6.30119-3.97917,13.57375-11.36806,13.72385-24.31445,0,0,3.45509-16.50313-10.89678-24.98385,0,0-4.784-4.81344,2.92351-9.39761L137.7,84.61268v72.708h17.72849V156.96a11.76473,11.76473,0,0,1-4.75778-9.237V54.20236A11.76471,11.76471,0,0,1,155.42844,44.9654Zm-67.03,109.05771h0V119.41246s3.72084-11.6897,13.55453-13.52335c0,0,15.41511,8.02235,13.55462,24.067a24.20323,24.20323,0,0,1-.19245,3.18055C113.91751,145.01411,102.2415,154.02311,88.39848,154.02311Z" style="fill:#fff"/><path d="M124.80983,67.61114c.11814-8.04781-4.43615-13.46961-9.53293-17.00994a35.2807,35.2807,0,0,0-20.04169-5.911H70.59146c5.04976.91682,4.78393,6.87627,4.78393,6.87627v53.63505c-2.73368,6.16594-10.1077,8.30783-13.07542,8.93611V44.67928H44.57156v.28608a11.76486,11.76486,0,0,1,4.75778,9.237V147.7231a11.76473,11.76473,0,0,1-4.75778,9.237v.36068H62.3V126.33221A25.20262,25.20262,0,0,1,74.31231,111.6194l32.95631-19.712C125.87291,83.65583,124.80983,67.61114,124.80983,67.61114ZM100.09261,93.28263c-13.55461,8.93916-12.22569-4.58418-12.22569-4.58418l.79733-41.02854h0c11.10793,0,20.81986,6.79433,22.68726,16.23764a26.01881,26.01881,0,0,1,.43528,6.22487A25.24981,25.24981,0,0,1,100.09261,93.28263Z" style="fill:#fff"/></svg>